<svg xmlns="http://www.w3.org/2000/svg" viewBox="0 0 24 24" width="24" height="24">
  <defs>
    <linearGradient id="sqlGrad1" x1="0%" y1="0%" x2="100%" y2="0%">
      <stop offset="0%" stop-color="#0284C7"/>
      <stop offset="50%" stop-color="#38BDF8"/>
      <stop offset="100%" stop-color="#0369A1"/>
    </linearGradient>
    <linearGradient id="sqlTop" x1="0%" y1="0%" x2="0%" y2="100%">
      <stop offset="0%" stop-color="#7DD3FC"/>
      <stop offset="100%" stop-color="#38BDF8"/>
    </linearGradient>
  </defs>
  <!-- Top tier -->
  <path d="M4 6v4c0 1.66 3.58 3 8 3s8-1.34 8-3V6" fill="url(#sqlGrad1)"/>
  <ellipse cx="12" cy="6" rx="8" ry="3" fill="url(#sqlTop)"/>
  <ellipse cx="12" cy="6" rx="6.5" ry="2" fill="#E0F2FE" opacity="0.3"/>
  <!-- Middle tier -->
  <path d="M4 11v4c0 1.66 3.58 3 8 3s8-1.34 8-3v-4" fill="url(#sqlGrad1)"/>
  <path d="M4 11c0 1.66 3.58 3 8 3s8-1.34 8-3" fill="none" stroke="#7DD3FC" stroke-width="0.8" opacity="0.8"/>
  <!-- Bottom tier -->
  <path d="M4 16v4c0 1.66 3.58 3 8 3s8-1.34 8-3v-4" fill="url(#sqlGrad1)"/>
  <path d="M4 16c0 1.66 3.58 3 8 3s8-1.34 8-3" fill="none" stroke="#7DD3FC" stroke-width="0.8" opacity="0.8"/>
</svg>